<?xml version="1.0" standalone="no"?>
<!DOCTYPE svg PUBLIC "-//W3C//DTD SVG 20010904//EN"
 "http://www.w3.org/TR/2001/REC-SVG-20010904/DTD/svg10.dtd">
<svg version="1.0" xmlns="http://www.w3.org/2000/svg"
 width="16.000000pt" height="16.000000pt" viewBox="0 0 16.000000 16.000000"
 preserveAspectRatio="xMidYMid meet">
<metadata>
Created by potrace 1.11, written by Peter Selinger 2001-2013
</metadata>
<g transform="translate(0.000000,16.000000) scale(0.002286,-0.002286)"
fill="#000000" stroke="none">
<path d="M3064 6794 c90 -53 204 -161 264 -251 23 -34 42 -64 42 -66 0 -3 18
-35 40 -71 22 -36 40 -70 40 -76 0 -5 5 -10 10 -10 6 0 10 -5 10 -11 0 -7 14
-35 32 -63 29 -49 41 -68 93 -161 13 -22 65 -112 115 -200 51 -88 101 -175
111 -193 11 -18 54 -93 96 -165 42 -73 87 -152 101 -177 14 -25 31 -54 38 -65
8 -11 14 -25 14 -31 0 -7 -97 -68 -215 -135 -118 -67 -214 -123 -212 -125 1
-1 245 -5 542 -9 297 -4 618 -8 713 -10 167 -2 174 -2 187 19 13 21 459 818
518 926 16 30 49 90 74 133 75 133 93 166 93 171 0 3 -33 -14 -72 -38 -40 -23
-80 -45 -88 -49 -8 -4 -55 -32 -104 -62 -49 -30 -91 -55 -93 -55 -3 0 -18 -10
-35 -21 -25 -18 -32 -19 -43 -8 -7 8 -102 167 -211 354 -111 191 -217 360
-241 386 -26 28 -68 58 -106 75 l-62 29 -865 3 -865 3 79 -47z"/>
<path d="M2508 6775 c-2 -2 -24 -6 -50 -9 -106 -14 -263 -100 -343 -187 -61
-66 -81 -99 -345 -554 -133 -231 -267 -460 -296 -510 -71 -121 -70 -118 -32
-138 18 -9 40 -21 48 -27 44 -30 413 -240 421 -240 5 0 9 -4 9 -10 0 -5 5 -10
10 -10 6 0 52 -25 102 -55 50 -30 92 -55 93 -55 1 0 125 -72 276 -159 242
-142 274 -158 284 -143 7 9 108 184 225 387 438 759 490 850 500 865 5 8 19
31 29 51 l20 36 -112 189 c-143 240 -188 307 -253 371 -138 136 -300 201 -498
201 -47 0 -86 -1 -88 -3z"/>
<path d="M5321 4620 c-326 -187 -595 -340 -597 -340 -2 0 -19 -11 -38 -23
l-34 -24 139 -239 c76 -131 142 -245 146 -253 3 -8 35 -64 71 -125 36 -61 76
-131 90 -156 14 -25 62 -108 107 -185 45 -77 114 -197 155 -267 l73 -128 194
0 c119 0 193 -4 191 -10 -1 -5 -29 -41 -61 -80 l-58 -70 -617 0 -617 0 0 255
c0 140 -2 255 -5 254 -4 0 -648 -1074 -700 -1167 -8 -14 -21 -33 -28 -40 -7
-8 -11 -21 -8 -29 3 -7 56 -98 117 -201 62 -103 121 -203 132 -222 10 -19 28
-47 38 -62 11 -14 19 -28 19 -31 0 -3 -75 -6 -166 -7 l-167 -1 6 91 c3 49 2
90 -1 91 -4 0 -19 3 -34 5 l-27 5 5 -96 4 -95 -165 0 c-91 0 -166 3 -166 8 -1
4 -3 103 -4 220 -1 193 0 212 15 207 48 -15 313 225 408 370 29 44 56 85 62
92 14 17 140 281 140 293 0 5 4 10 9 10 16 0 22 33 9 46 -7 7 -24 14 -37 16
-22 3 -25 -2 -37 -54 -35 -152 -182 -394 -327 -541 -84 -85 -212 -187 -235
-187 -5 0 -9 152 -10 373 0 204 0 381 -1 392 -1 20 -8 20 -786 20 -431 -1
-786 -3 -788 -5 -7 -9 -204 -364 -229 -415 -73 -143 -109 -338 -86 -465 17
-98 61 -208 112 -280 18 -25 35 -51 40 -57 6 -10 -27 -13 -148 -13 l-156 0 0
33 c0 17 4 47 9 65 9 30 8 34 -16 43 -14 5 -31 8 -37 6 -9 -3 -10 -44 -2 -119
l3 -27 -106 -3 c-58 -2 -140 -1 -181 2 -84 6 -80 -1 -66 96 5 37 3 44 -12 45
-9 0 -24 2 -34 4 -14 3 -16 -6 -12 -71 l4 -74 -228 -2 -227 -3 -1 -23 -1 -22
229 0 229 0 -2 -58 c-2 -81 -2 -82 26 -82 24 0 24 1 21 70 l-3 70 181 0 181 0
0 -68 c0 -62 2 -67 23 -70 24 -4 26 9 22 101 l-2 37 184 0 183 0 35 -28 c82
-67 172 -111 285 -139 50 -13 169 -16 708 -17 611 -1 647 0 648 16 1 10 2 45
2 78 1 33 4 61 7 61 3 1 78 2 168 3 l162 2 0 -92 0 -92 -237 2 -238 1 0 -25 0
-25 238 3 237 2 0 -94 c0 -66 -4 -95 -12 -98 -7 -2 -93 -3 -190 -1 l-178 3 0
-25 0 -25 190 3 190 2 0 -87 c0 -63 -4 -88 -12 -89 -7 0 -98 -2 -203 -2 -183
-2 -190 -3 -190 -22 0 -19 7 -20 185 -22 102 -1 193 -2 203 -2 16 -1 17 -10
15 -93 l-3 -92 -256 2 c-252 2 -257 2 -262 -19 -3 -11 0 -22 6 -25 7 -2 116
-3 242 -1 127 2 240 1 253 -1 22 -4 23 -7 21 -126 -2 -164 -3 -158 24 -154 23
3 23 -4 27 253 l0 31 265 -3 265 -3 0 25 0 24 -258 -1 c-142 -1 -262 1 -267 4
-10 6 -11 165 -1 175 3 3 100 5 216 4 l210 -2 0 26 0 26 -211 -4 c-158 -2
-212 0 -216 9 -2 7 -5 46 -6 88 -2 61 1 76 13 77 8 1 101 2 205 3 l190 1 0
115 0 115 43 0 c23 1 46 -2 50 -5 7 -4 92 -143 147 -238 58 -100 108 -183 113
-186 4 -2 7 109 7 247 l0 252 420 1 c231 0 431 4 445 8 43 12 104 39 130 57
23 15 80 16 618 15 l593 -1 -3 25 -3 25 -330 0 -330 0 -1 85 c-1 46 3 100 7
119 4 20 6 37 5 39 -2 1 -19 5 -38 8 l-34 6 4 -129 4 -129 -210 0 -210 0 23
35 c13 20 110 186 215 370 162 282 201 344 253 395 179 178 289 344 455 688 6
12 -47 60 -58 53 -5 -3 -69 -8 -142 -10 l-133 -5 56 24 c162 68 317 244 377
427 30 89 34 121 34 224 -1 111 -25 193 -93 324 -30 58 -47 101 -43 113 4 12
-2 21 -19 29 -18 8 -85 115 -233 372 -115 198 -218 376 -229 396 -31 55 -77
131 -78 131 -1 0 -269 -153 -596 -340z m1049 -1754 c0 -11 -131 -78 -199 -101
-39 -13 -71 -22 -71 -20 0 2 -15 -1 -32 -6 -18 -6 -94 -13 -168 -16 l-135 -5
25 28 c14 16 27 31 31 34 3 3 18 22 33 42 25 33 33 37 79 40 107 6 437 9 437
4z m-15 -92 c-54 -117 -130 -243 -209 -349 -32 -44 -57 -75 -55 -69 11 30 295
514 301 514 4 0 -13 -43 -37 -96z m-2302 -1358 c2 -6 3 -47 3 -91 l-1 -80
-177 -1 c-98 -1 -178 2 -179 5 -1 8 -1 120 0 152 l1 25 175 0 c113 0 176 -4
178 -10z m94 -133 l22 -40 -32 1 c-30 1 -31 3 -33 44 -1 52 12 50 43 -5z m-96
-96 c1 -7 2 -49 3 -94 2 -77 1 -83 -18 -84 -12 -1 -90 -2 -174 -3 -128 -1
-155 2 -161 14 -6 13 -6 49 -2 156 1 22 4 22 176 23 130 0 175 -3 176 -12z"/>
<path d="M1579 4764 c-10 -13 -5 -22 37 -62 l49 -47 -63 -3 c-50 -2 -68 1 -91
17 l-28 20 -23 -21 c-21 -19 -36 -22 -154 -24 -619 -10 -911 -16 -914 -18 -1
-2 52 -33 118 -71 66 -37 120 -71 120 -75 0 -4 -16 -6 -35 -4 -30 3 -35 0 -35
-19 0 -40 11 -44 107 -43 78 2 98 -1 127 -19 l35 -21 -198 -346 c-253 -443
-245 -424 -244 -533 1 -99 -1 -95 221 -477 89 -153 162 -280 162 -283 0 -3
-50 -3 -110 0 l-111 5 5 -28 c2 -15 5 -30 5 -33 1 -3 57 -5 125 -4 l123 2 147
-252 c80 -139 146 -255 146 -257 0 -18 -230 -172 -322 -216 -27 -13 -48 -25
-48 -27 0 -1 11 -10 25 -19 25 -16 28 -16 114 30 49 25 127 75 175 110 47 35
88 64 90 64 4 0 108 -177 117 -200 3 -8 6 19 6 60 0 41 3 97 7 124 13 89 61
220 106 286 24 36 83 141 130 235 48 93 169 312 269 485 101 173 212 366 248
428 36 61 67 112 68 112 6 0 95 -50 275 -153 91 -52 167 -93 169 -91 2 2 -1 9
-6 16 -6 7 -27 45 -48 83 -21 39 -147 266 -280 505 -133 239 -255 460 -272
490 -16 30 -44 80 -61 111 l-32 55 -47 -2 c-44 -2 -49 0 -102 53 -69 68 -85
77 -102 57z"/>
<path d="M3306 4706 c-21 -33 -21 -33 17 -40 17 -3 43 -9 57 -12 14 -3 35 -7
48 -10 68 -14 262 -79 342 -114 51 -23 96 -37 100 -33 4 4 11 17 14 29 6 19
-2 25 -66 52 -127 53 -300 108 -399 127 -11 2 -30 7 -42 10 -12 4 -29 9 -38
11 -10 3 -23 -6 -33 -20z"/>
<path d="M3196 4285 c-10 -28 -7 -33 27 -43 17 -5 66 -20 107 -32 88 -26 207
-70 286 -106 53 -24 56 -24 69 -8 24 34 15 40 -145 103 -79 30 -253 85 -306
96 -24 4 -33 2 -38 -10z"/>
<path d="M3162 3769 c-16 -24 -15 -26 18 -33 212 -43 453 -121 630 -203 52
-24 99 -42 106 -39 6 2 14 14 17 26 5 18 -4 26 -71 57 -103 47 -241 100 -327
124 -124 36 -329 89 -345 89 -8 0 -21 -9 -28 -21z"/>
<path d="M3414 2755 c-4 -9 5 -32 18 -53 14 -20 39 -67 56 -103 34 -75 42 -83
65 -66 14 11 13 19 -17 82 -63 135 -106 184 -122 140z"/>
<path d="M5945 1178 l0 -103 -232 1 c-161 0 -233 -3 -233 -10 -3 -105 2 -621
6 -627 2 -4 14 -5 26 0 22 8 22 9 20 299 l-2 292 210 0 210 0 0 -400 0 -400
24 0 c13 0 26 6 28 12 2 7 3 187 2 401 l-2 387 228 0 c173 0 229 -3 232 -12 2
-7 4 -121 3 -252 -2 -287 3 -275 -122 -272 -101 3 -107 1 -86 -31 16 -24 19
-25 105 -20 93 5 133 21 147 59 4 11 7 145 7 297 l-1 276 -255 0 -255 0 -1 65
c0 36 3 78 8 94 4 16 7 31 5 32 -1 1 -18 5 -37 9 l-35 6 0 -103z"/>
<path d="M600 994 l0 -255 183 1 c100 1 194 1 210 1 l27 -1 0 -96 0 -95 -327
2 c-324 2 -326 2 -334 -19 -5 -12 -5 -23 -1 -26 4 -2 155 -3 335 -2 l328 2 -2
-140 -3 -141 27 -3 27 -3 0 144 0 143 341 -2 340 -2 -3 26 -3 25 -337 -2 -338
-2 0 95 c0 70 3 96 13 97 6 0 105 0 218 -1 l207 -1 -1 255 -1 256 -453 0 -452
0 -1 -256z m841 207 c14 -1 16 -14 15 -88 l-1 -88 -400 0 -400 0 -3 84 c-2 46
1 87 7 90 7 5 698 6 782 2z m16 -316 l-1 -95 -403 0 -403 0 0 95 0 95 404 0
404 0 -1 -95z"/>
<path d="M2833 1213 c-24 -9 -13 -28 35 -61 45 -30 78 -58 143 -118 28 -27 59
-24 59 5 0 10 -23 37 -52 62 -51 44 -159 120 -168 118 -3 0 -11 -3 -17 -6z"/>
<path d="M3070 738 c-37 -117 -132 -317 -193 -407 l-30 -44 23 -19 c12 -10 27
-18 34 -18 14 0 126 242 189 411 24 64 24 67 8 93 l-18 26 -13 -42z"/>
</g>
</svg>
