<svg xmlns="http://www.w3.org/2000/svg" width="100" height="100"><path d="M19.653 71.726c-.949 1.703-1.704 4.266-1.704 5.881 0 .375 0 .852.094 1.513L6.189 58.734c-.38-.662-.662-1.61-.662-2.465 0-.857.282-1.897.662-2.56l5.69-9.956-6.352-3.602 20.672-.382 10.05 18.11-6.445-3.698Zm9.105-57.46c1.8-3.133 4.742-4.84 8.343-4.84 3.89 0 6.925 1.804 9.105 5.497l3.225 5.405-11.192 19.349-18.11-10.527zm1.324 73.863c-5.405 0-9.86-4.456-9.86-9.86 0-1.518.666-4.08 1.615-5.691l3.031-5.405h22.475V88.13Zm18.021-74.437c-1.421-2.462-3.318-4.173-5.595-5.122h23.325c2.087 0 3.697.857 4.65 2.47l5.784 9.86 6.256-3.7-10.054 18.02-20.572-.29 6.352-3.6zm35.942 53.672c2.84 0 5.214-.759 7.204-2.274L79.488 85.57c-.949 1.61-2.651 2.56-4.642 2.56h-11.1v7.3L53.129 77.7l10.619-17.735v7.399zm9.097-17.069c.856 1.518 1.331 3.128 1.331 4.836 0 3.413-2.183 7.018-5.214 8.721-1.425.763-3.419 1.24-5.405 1.24h-6.262l-11.187-19.35 18.112-10.336Z" style="stroke-width:.907621"/></svg>