<?xml version="1.0" encoding="UTF-8" standalone="no"?>
<svg
   width="100"
   height="100"
   version="1.1"
   id="svg3"
   sodipodi:docname="icon.svg"
   inkscape:version="1.3.2 (091e20ef0f, 2023-11-25)"
   xmlns:inkscape="http://www.inkscape.org/namespaces/inkscape"
   xmlns:sodipodi="http://sodipodi.sourceforge.net/DTD/sodipodi-0.dtd"
   xmlns="http://www.w3.org/2000/svg"
   xmlns:svg="http://www.w3.org/2000/svg">
  <defs
     id="defs3" />
  <sodipodi:namedview
     id="namedview3"
     pagecolor="#ffffff"
     bordercolor="#000000"
     borderopacity="0.25"
     inkscape:showpageshadow="2"
     inkscape:pageopacity="0.0"
     inkscape:pagecheckerboard="0"
     inkscape:deskcolor="#d1d1d1"
     inkscape:zoom="2.818"
     inkscape:cx="230.30518"
     inkscape:cy="78.246984"
     inkscape:window-width="1920"
     inkscape:window-height="1043"
     inkscape:window-x="0"
     inkscape:window-y="0"
     inkscape:window-maximized="1"
     inkscape:current-layer="svg3" />
  <path
     d="m 19.652779,71.725784 c -0.948464,1.703604 -1.703605,4.265819 -1.703605,5.881384 0,0.374848 0,0.851349 0.09348,1.513005 L 6.1891279,58.734095 c -0.3802932,-0.661656 -0.6625634,-1.61012 -0.6625634,-2.465099 0,-0.856795 0.2822702,-1.896928 0.6625634,-2.559492 L 11.879912,43.7529 5.5265645,40.15146 26.19945,39.769351 36.248632,57.878208 29.803614,54.18056 Z m 9.105255,-57.460586 c 1.800721,-3.132201 4.742321,-4.8385288 8.342855,-4.8385288 3.890064,0 6.925148,1.8034428 9.105255,5.4965538 l 3.224778,5.404884 -11.191876,19.348667 -18.109765,-10.52659 z m 1.32422,73.864022 c -5.404883,0 -9.860395,-4.45642 -9.860395,-9.860396 0,-1.517542 0.666193,-4.080664 1.614658,-5.690784 l 3.031454,-5.404884 H 47.343392 V 88.12922 Z M 48.103071,13.692489 C 46.681736,11.230112 44.784808,9.5192466 42.508494,8.5698749 H 65.83345 c 2.086622,0 3.696741,0.8567943 4.648835,2.4696371 l 5.784271,9.861304 6.256231,-3.701279 -10.053719,18.01991 -20.572141,-0.289532 6.352441,-3.600533 z m 35.941798,53.671267 c 2.840854,0 5.214283,-0.758771 7.203789,-2.273591 L 79.487703,85.569729 c -0.948464,1.61012 -2.651161,2.559491 -4.641575,2.559491 H 63.745922 v 7.300905 L 53.128569,77.699746 63.747737,59.964829 v 7.398927 z m 9.097085,-17.068723 c 0.855887,1.517543 1.331481,3.127663 1.331481,4.835806 0,3.413563 -2.183736,7.017726 -5.214283,8.721331 -1.424966,0.762402 -3.41901,1.238903 -5.404885,1.238903 H 77.591682 L 66.405251,45.742406 84.516831,35.405509 Z"
     id="path3"
     style="stroke-width:0.907621" />
</svg>
