<?xml version="1.0" encoding="UTF-8" standalone="no"?>
<svg
   width="1200"
   height="630"
   version="1.1"
   id="svg3"
   sodipodi:docname="opengraph.svg"
   inkscape:version="1.3.2 (091e20ef0f, 2023-11-25)"
   xmlns:inkscape="http://www.inkscape.org/namespaces/inkscape"
   xmlns:sodipodi="http://sodipodi.sourceforge.net/DTD/sodipodi-0.dtd"
   xmlns="http://www.w3.org/2000/svg"
   xmlns:svg="http://www.w3.org/2000/svg">
  <defs
     id="defs3" />
  <sodipodi:namedview
     id="namedview3"
     pagecolor="#ffffff"
     bordercolor="#000000"
     borderopacity="0.25"
     inkscape:showpageshadow="2"
     inkscape:pageopacity="0.0"
     inkscape:pagecheckerboard="0"
     inkscape:deskcolor="#d1d1d1"
     inkscape:zoom="0.47977195"
     inkscape:cx="569.02034"
     inkscape:cy="317.85935"
     inkscape:window-width="1920"
     inkscape:window-height="1043"
     inkscape:window-x="0"
     inkscape:window-y="0"
     inkscape:window-maximized="1"
     inkscape:current-layer="svg3" />
  <g
     id="g3"
     transform="matrix(2.2757794,0,0,2.2757794,39.170579,198.51765)">
    <g
       style="font-style:normal;font-weight:400;font-size:34.8602px;line-height:120%;font-family:sans-serif;letter-spacing:0;word-spacing:0;fill:#000000;fill-opacity:1;stroke:none;stroke-width:1px;stroke-linecap:butt;stroke-linejoin:miter;stroke-opacity:1"
       id="g2">
      <path
         d="m 143.633,977.58 v -13.24 h -12.459 q -2.342,0 -4.763,0.096 -0.367,0 -0.399,-0.335 -0.032,-0.318 -0.032,-0.971 1.96,0.127 5.226,0.127 h 7.44 q 0.223,0 5.784,-0.096 0.462,0 0.462,0.335 0,0.064 -0.016,0.127 -0.064,1.403 -0.064,4.637 v 6.707 q 0,2.677 0.096,5.29 0,0.334 -0.319,0.334 h -0.621 q -0.335,0 -0.335,-0.335 v -1.593 h -12.602 q -3.425,0 -4.955,0.096 -0.048,0.016 -0.111,0.016 -0.208,0 -0.24,-0.303 -0.031,-0.366 -0.031,-0.988 1.402,0.096 3.584,0.096 h 14.355 m 0.494,-18.194 0.749,-0.526 q 0.08,-0.048 0.111,-0.048 0.048,0 0.128,0.048 1.784,1.21 3.457,3.68 0.048,0.064 0.048,0.128 0,0.08 -0.08,0.143 l -0.59,0.478 q -0.08,0.064 -0.143,0.064 -0.095,0 -0.16,-0.096 -1.449,-2.342 -3.52,-3.871 m 2.422,-1.833 0.621,-0.525 q 0.08,-0.08 0.143,-0.08 0.048,0 0.112,0.048 2.198,1.657 3.489,3.76 0.032,0.063 0.032,0.127 0,0.096 -0.096,0.16 l -0.557,0.462 q -0.048,0.031 -0.112,0.031 -0.111,0 -0.143,-0.063 -1.354,-2.326 -3.49,-3.92 m 35.477,1.562 0.399,-0.876 q 0.111,-0.24 0.287,-0.24 0.047,0 0.127,0.016 7.106,1.562 11.232,3.521 0.255,0.176 0.255,0.303 0,0.064 -0.032,0.16 -0.191,0.477 -0.303,0.684 -0.08,0.16 -0.19,0.16 -0.128,0 -0.383,-0.128 -4.716,-2.39 -11.392,-3.6 m -2.182,8.683 q 0.255,-0.654 0.366,-0.893 0.064,-0.127 0.191,-0.127 0.08,0 0.223,0.032 4.971,1.179 9.496,3.266 0.287,0.143 0.287,0.287 0,0.08 -0.048,0.207 l -0.271,0.526 q -0.08,0.175 -0.223,0.175 -0.096,0 -0.27,-0.08 -4.605,-2.262 -9.751,-3.393 m -0.717,10.403 q 0.143,-0.318 0.43,-0.812 0.112,-0.223 0.319,-0.223 0.063,0 0.159,0.032 9.67,2.134 15.103,5.082 0.192,0.095 0.192,0.27 0,0.112 -0.048,0.224 -0.096,0.239 -0.271,0.494 -0.112,0.175 -0.255,0.175 -0.096,0 -0.223,-0.08 -3.362,-1.784 -8.046,-3.282 -3.728,-1.179 -7.36,-1.88 m 57.144,-11.088 q 5.401,1.45 11.057,4.7 0.191,0.095 0.191,0.207 0,0.063 -0.032,0.111 -0.175,0.414 -0.35,0.685 -0.128,0.175 -0.24,0.175 -0.079,0 -0.254,-0.111 -4.413,-2.9 -10.372,-4.557 v 9.098 q 0,2.867 0.096,5.847 0,0.382 -0.319,0.382 h -0.733 q -0.318,0 -0.318,-0.414 0.095,-2.932 0.095,-5.784 v -16.76 q 0,-2.135 -0.191,-3.6 0.956,0.063 1.498,0.238 0.255,0.064 0.255,0.319 0,0.16 -0.128,0.366 -0.255,0.43 -0.255,2.534 z m 44.654,-7.663 q 1.8,0.159 5.321,0.159 h 4.54 q 3.33,0 5.115,-0.128 0.064,-0.016 0.111,-0.016 0.192,0 0.192,0.303 v 0.701 q 0,0.287 -0.303,0.287 -0.637,-0.016 -1.689,-0.032 -2.119,-0.064 -3.425,-0.064 h -4.54 q -2.646,0 -4.924,0.096 -0.318,0 -0.366,-0.287 -0.032,-0.303 -0.032,-1.02 m -2.868,6.754 q 1.992,0.16 5.05,0.16 h 12.698 q 1.227,0 1.482,-0.175 0.08,-0.064 0.191,-0.064 0.175,0 0.319,0.127 0.318,0.271 0.557,0.59 0.096,0.143 0.096,0.287 0,0.175 -0.16,0.286 -0.318,0.223 -0.557,0.845 -4.19,10.228 -14.69,15.247 -0.174,0.08 -0.302,0.08 -0.127,0 -0.207,-0.08 -0.303,-0.303 -0.956,-0.558 11.248,-5.305 15.104,-15.502 h -13.543 q -2.788,0 -4.524,0.096 -0.096,0.016 -0.16,0.016 -0.239,0 -0.302,-0.271 -0.096,-0.494 -0.096,-1.084 m 52.19,1.165 0.685,-0.415 q 0.08,-0.048 0.143,-0.048 0.112,0 0.255,0.176 1.275,1.593 2.533,4.445 0.048,0.095 0.048,0.143 0,0.096 -0.143,0.175 -0.43,0.255 -0.59,0.335 -0.064,0.016 -0.111,0.016 -0.096,0 -0.176,-0.191 -1.21,-2.948 -2.644,-4.637 m 6.325,-1.498 0.685,-0.398 q 0.063,-0.016 0.127,-0.016 0.143,0 0.24,0.159 1.242,1.705 2.341,4.43 0.032,0.063 0.032,0.095 0,0.127 -0.16,0.207 l -0.557,0.287 q -0.08,0.031 -0.127,0.031 -0.096,0 -0.16,-0.159 -0.972,-2.645 -2.421,-4.636 m 10.212,0.255 q 0.94,0.223 1.37,0.557 0.128,0.096 0.128,0.271 0,0.16 -0.128,0.255 -0.382,0.319 -0.844,1.402 -2.12,5.13 -4.796,8.524 -3.075,3.855 -6.978,6.197 -0.112,0.048 -0.207,0.048 -0.112,0 -0.16,-0.048 -0.366,-0.366 -0.908,-0.43 4.175,-2.374 7.409,-6.389 2.979,-3.696 4.636,-8.3 0.35,-0.956 0.478,-2.087 m 41.563,-3.552 8.73,-0.191 q 1.1,-0.048 1.402,-0.191 0.112,-0.064 0.224,-0.064 0.143,0 0.302,0.127 0.271,0.176 0.622,0.59 0.19,0.207 0.19,0.398 0,0.112 -0.095,0.207 -0.318,0.287 -0.621,0.988 -3.06,6.691 -6.293,10.451 -4.684,5.417 -10.627,8.843 -0.08,0.032 -0.16,0.032 -0.11,0 -0.174,-0.064 -0.399,-0.35 -1.116,-0.606 6.596,-3.584 11.105,-8.97 3.712,-4.412 6.325,-10.69 l -10.579,0.255 q -3.489,4.445 -6.978,7.504 -0.16,0.128 -0.287,0.128 -0.048,0 -0.096,-0.032 -0.557,-0.319 -1.115,-0.462 5.56,-4.477 8.588,-9.496 1.338,-2.23 1.688,-3.903 0.781,0.319 1.37,0.844 0.176,0.176 0.176,0.335 0,0.159 -0.176,0.287 -0.398,0.287 -0.94,1.21 -1.258,2.151 -1.465,2.47"
         style="font-style:normal;font-variant:normal;font-weight:300;font-stretch:normal;font-size:32.6286px;line-height:120%;font-family:'Yu Gothic';-inkscape-font-specification:'Yu Gothic Light';text-align:start;letter-spacing:18.127px;text-anchor:start"
         transform="translate(0,-952.362)"
         id="path1" />
      <path
         d="m 159.04,1005.706 -2.677,0.987 q -1.625,-5.64 -5.513,-8.444 -3.345,-2.453 -8.061,-2.453 -7.648,0 -12.172,6.628 -4.143,6.054 -4.143,15.74 0,11.185 5.194,17.334 4.366,5.194 11.12,5.194 7.871,0 11.504,-6.436 Q 157,1029.412 157,1021.7 h -14.626 v -2.358 h 17.111 v 22.91 h -2.103 l -0.318,-9.017 q -2.071,5.13 -6.182,7.68 -3.537,2.198 -8.093,2.198 -8.922,0 -14.307,-7.424 -4.875,-6.724 -4.875,-17.462 0,-12.172 6.404,-19.15 5.226,-5.704 12.778,-5.704 6.277,0 10.674,3.76 3.76,3.187 5.576,8.572 m 28.869,-12.331 q 8.858,0 14.147,7.329 4.844,6.723 4.844,17.398 0,12.3 -6.214,19.246 -5.162,5.767 -12.777,5.767 -8.89,0 -14.211,-7.424 -4.844,-6.724 -4.844,-17.462 0,-12.236 6.246,-19.15 5.162,-5.704 12.809,-5.704 m 0,2.422 q -7.743,0 -12.172,6.628 -4.015,6.022 -4.015,15.74 0,11.185 5.162,17.366 4.333,5.162 11.025,5.162 7.711,0 12.14,-6.723 3.983,-6.022 3.983,-15.805 0,-11.152 -5.13,-17.238 -4.302,-5.13 -10.993,-5.13 m 74.466,-1.561 v 48.018 h -2.677 v -32.628 l 0.128,-13.096 h -0.446 q -2.486,6.946 -4.844,12.905 l -12.905,32.82 h -3.473 l -12.905,-32.82 q -2.58,-6.596 -4.843,-12.905 h -0.446 l 0.127,13.096 v 32.629 h -2.612 v -48.02 h 4.556 l 12.746,32.374 q 2.358,5.895 4.939,13.351 h 0.478 q 2.58,-7.679 4.747,-13.16 l 12.81,-32.564 z m 16.282,0 v 48.018 h -2.676 v -48.018 z m 43.463,0 v 2.358 h -15.964 v 45.66 h -2.677 v -45.66 H 287.61 v -2.358 z m 8.921,0 h 14.945 q 8.54,0 12.586,3.632 3.345,2.995 3.345,8.317 0,4.907 -3.122,8.125 -2.804,2.9 -7.775,3.887 l 12.013,24.057 h -3.091 l -11.599,-23.674 q -1.72,0.127 -2.74,0.127 h -11.885 v 23.548 h -2.677 z m 2.677,2.358 v 19.819 h 11.694 q 13.701,0 13.701,-10.165 0,-5.225 -3.505,-7.551 -3.218,-2.103 -9.814,-2.103 z m 53.691,-2.358 16.378,48.018 h -2.932 l -5.576,-16.632 h -19.373 l -5.608,16.632 h -2.868 l 16.442,-48.018 z m 7.105,29.091 -4.556,-13.701 q -1.88,-5.48 -4.11,-13.096 h -0.479 q -1.657,5.895 -4.11,13.032 l -4.62,13.765 z m 49.389,-17.206 -2.676,0.956 q -3.123,-11.28 -13.702,-11.28 -7.647,0 -12.172,6.628 -4.142,6.054 -4.142,15.74 0,11.12 5.321,17.366 4.397,5.162 10.993,5.162 11.057,0 14.084,-11.63 l 2.677,1.243 q -4.27,12.809 -16.76,12.809 -8.795,0 -14.212,-7.424 -4.97,-6.787 -4.97,-17.462 0,-12.172 6.404,-19.15 5.225,-5.704 12.777,-5.704 6.341,0 10.738,3.792 3.792,3.282 5.64,8.954 m 41.997,-11.885 -18.8,19.437 21.062,28.581 h -3.377 l -19.374,-26.829 -9.208,9.527 v 17.303 h -2.677 v -48.02 h 2.677 v 27.659 l 26.096,-27.658 z"
         style="font-style:normal;font-variant:normal;font-weight:300;font-stretch:normal;font-size:65.2572px;line-height:120%;font-family:'Yu Gothic';-inkscape-font-specification:'Yu Gothic Light';text-align:start;letter-spacing:0;text-anchor:start"
         transform="translate(0,-952.362)"
         id="path2" />
    </g>
    <path
       d="m 20.271,72.917 c -1.045,1.877 -1.877,4.7 -1.877,6.48 0,0.413 0,0.938 0.103,1.667 L 5.437,58.603 c -0.419,-0.729 -0.73,-1.774 -0.73,-2.716 0,-0.944 0.311,-2.09 0.73,-2.82 l 6.27,-10.97 -7,-3.968 22.777,-0.421 11.072,19.952 -7.101,-4.074 z M 30.303,9.608 c 1.984,-3.451 5.225,-5.331 9.192,-5.331 4.286,0 7.63,1.987 10.032,6.056 L 53.08,16.288 40.749,37.606 20.796,26.008 Z m 1.459,81.382 c -5.955,0 -10.864,-4.91 -10.864,-10.864 0,-1.672 0.734,-4.496 1.779,-6.27 l 3.34,-5.955 H 50.78 V 90.99 Z M 51.617,8.977 C 50.051,6.264 47.961,4.379 45.453,3.333 h 25.699 c 2.299,0 4.073,0.944 5.122,2.721 l 6.373,10.865 6.893,-4.078 -11.077,19.854 -22.666,-0.319 6.999,-3.967 z m 39.6,59.134 c 3.13,0 5.745,-0.836 7.937,-2.505 L 86.196,88.17 c -1.045,1.774 -2.921,2.82 -5.114,2.82 h -12.23 v 8.044 l -11.698,-19.535 11.7,-19.54 v 8.152 z M 101.24,49.305 c 0.943,1.672 1.467,3.446 1.467,5.328 0,3.761 -2.406,7.732 -5.745,9.609 -1.57,0.84 -3.767,1.365 -5.955,1.365 h -6.9 L 71.782,44.289 91.737,32.9 Z"
       id="path3" />
  </g>
</svg>
