<?xml version="1.0" encoding="UTF-8" standalone="no"?>
<svg
   xmlns:dc="http://purl.org/dc/elements/1.1/"
   xmlns:cc="http://creativecommons.org/ns#"
   xmlns:rdf="http://www.w3.org/1999/02/22-rdf-syntax-ns#"
   xmlns:svg="http://www.w3.org/2000/svg"
   xmlns="http://www.w3.org/2000/svg"
   version="1.1"
   id="svg2"
   viewBox="0 0 500 100"
   height="100"
   width="500">
  <defs
     id="defs4" />
  <metadata
     id="metadata7">
    <rdf:RDF>
      <cc:Work
         rdf:about="">
        <dc:format>image/svg+xml</dc:format>
        <dc:type
           rdf:resource="http://purl.org/dc/dcmitype/StillImage" />
        <dc:title></dc:title>
      </cc:Work>
    </rdf:RDF>
  </metadata>
  <g
     transform="translate(0,-952.36216)"
     id="layer1">
    <g
       id="text4136"
       style="font-style:normal;font-weight:normal;font-size:34.86024094px;line-height:120.00000477%;font-family:sans-serif;letter-spacing:0px;word-spacing:0px;fill:#000000;fill-opacity:1;stroke:none;stroke-width:1px;stroke-linecap:butt;stroke-linejoin:miter;stroke-opacity:1">
      <path
         id="path4737"
         style="font-style:normal;font-variant:normal;font-weight:300;font-stretch:normal;font-size:32.62860107px;line-height:120.00000477%;font-family:'Yu Gothic';-inkscape-font-specification:'Yu Gothic Light';text-align:start;letter-spacing:18.12699699px;text-anchor:start"
         d="m 143.63307,977.57987 0,-13.23944 -12.45877,0 q -2.342,0 -4.76365,0.0956 -0.36644,0 -0.3983,-0.33458 -0.0319,-0.31863 -0.0319,-0.97184 1.95962,0.12745 5.22567,0.12745 l 7.44021,0 q 0.22305,0 5.7833,-0.0956 0.46202,0 0.46202,0.33457 0,0.0637 -0.0159,0.12746 -0.0637,1.40201 -0.0637,4.63619 l 0,6.70734 q 0,2.67657 0.0956,5.28941 0,0.33457 -0.31864,0.33457 l -0.62134,0 q -0.33457,0 -0.33457,-0.33457 l 0,-1.5932 -12.60216,0 q -3.42537,0 -4.95483,0.0956 -0.0478,0.0159 -0.11153,0.0159 -0.20711,0 -0.23898,-0.30271 -0.0319,-0.36644 -0.0319,-0.98778 1.40201,0.0956 3.58469,0.0956 l 1.75251,0 12.60216,0 z m 0.49389,-18.19427 0.7488,-0.52575 q 0.0797,-0.0478 0.11152,-0.0478 0.0478,0 0.12746,0.0478 1.78437,1.21083 3.45723,3.68028 0.0478,0.0637 0.0478,0.12745 0,0.0797 -0.0797,0.14339 l -0.58948,0.47796 q -0.0797,0.0637 -0.14338,0.0637 -0.0956,0 -0.15932,-0.0956 -1.44981,-2.34199 -3.52096,-3.87146 z m 2.42165,-1.83217 0.62135,-0.52575 q 0.0797,-0.0797 0.14339,-0.0797 0.0478,0 0.11152,0.0478 2.19861,1.65692 3.48909,3.75994 0.0319,0.0637 0.0319,0.12745 0,0.0956 -0.0956,0.15932 l -0.55761,0.46203 q -0.0478,0.0319 -0.11153,0.0319 -0.11152,0 -0.14338,-0.0637 -1.35422,-2.32607 -3.4891,-3.91926 z" />
      <path
         id="path4739"
         style="font-style:normal;font-variant:normal;font-weight:300;font-stretch:normal;font-size:32.62860107px;line-height:120.00000477%;font-family:'Yu Gothic';-inkscape-font-specification:'Yu Gothic Light';text-align:start;letter-spacing:18.12699699px;text-anchor:start"
         d="m 182.02549,959.11476 q 0.31864,-0.70101 0.3983,-0.87626 0.11152,-0.23898 0.28677,-0.23898 0.0478,0 0.12746,0.0159 7.10564,1.56133 11.23201,3.52095 0.25491,0.17525 0.25491,0.30271 0,0.0637 -0.0319,0.15932 -0.19119,0.47796 -0.30271,0.68507 -0.0797,0.15932 -0.19118,0.15932 -0.12746,0 -0.38237,-0.12745 -4.71585,-2.38979 -11.39133,-3.60062 z m -2.18268,8.6829 q 0.25491,-0.65321 0.36644,-0.89218 0.0637,-0.12746 0.19118,-0.12746 0.0797,0 0.22305,0.0319 4.97076,1.17897 9.49543,3.26605 0.28677,0.14339 0.28677,0.28677 0,0.0797 -0.0478,0.20712 l -0.27084,0.52575 q -0.0797,0.17526 -0.22305,0.17526 -0.0956,0 -0.27084,-0.0797 -4.60433,-2.26234 -9.75035,-3.39351 z m -0.71693,10.40356 q 0.14338,-0.31864 0.43016,-0.81253 0.11152,-0.22305 0.31864,-0.22305 0.0637,0 0.15932,0.0319 9.67068,2.13488 15.10347,5.08229 0.19118,0.0956 0.19118,0.27084 0,0.11153 -0.0478,0.22305 -0.0956,0.23898 -0.27085,0.49389 -0.11152,0.17525 -0.25491,0.17525 -0.0956,0 -0.22304,-0.0797 -3.36164,-1.78437 -8.04563,-3.28198 -3.72807,-1.17896 -7.36055,-1.87996 z" />
      <path
         id="path4741"
         style="font-style:normal;font-variant:normal;font-weight:300;font-stretch:normal;font-size:32.62860107px;line-height:120.00000477%;font-family:'Yu Gothic';-inkscape-font-specification:'Yu Gothic Light';text-align:start;letter-spacing:18.12699699px;text-anchor:start"
         d="m 236.27018,967.11259 q 5.40093,1.44981 11.05676,4.69992 0.19119,0.0956 0.19119,0.20712 0,0.0637 -0.0319,0.11152 -0.17525,0.41423 -0.3505,0.68507 -0.12746,0.17525 -0.23898,0.17525 -0.0797,0 -0.25491,-0.11152 -4.41315,-2.89961 -10.37169,-4.55653 l 0,9.09713 q 0,2.86775 0.0956,5.84702 0,0.38237 -0.31864,0.38237 l -0.73286,0 q -0.31864,0 -0.31864,-0.41423 0.0956,-2.93148 0.0956,-5.78329 l 0,-16.7604 q 0,-2.13488 -0.19119,-3.60062 0.95592,0.0637 1.49761,0.23898 0.25491,0.0637 0.25491,0.31864 0,0.15932 -0.12746,0.36644 -0.25491,0.43016 -0.25491,2.53317 l 0,6.56396 z" />
      <path
         id="path4743"
         style="font-style:normal;font-variant:normal;font-weight:300;font-stretch:normal;font-size:32.62860107px;line-height:120.00000477%;font-family:'Yu Gothic';-inkscape-font-specification:'Yu Gothic Light';text-align:start;letter-spacing:18.12699699px;text-anchor:start"
         d="m 280.92385,959.44933 q 1.80031,0.15932 5.32127,0.15932 l 4.5406,0 q 3.32977,0 5.11415,-0.12746 0.0637,-0.0159 0.11152,-0.0159 0.19119,0 0.19119,0.30271 l 0,0.701 q 0,0.28678 -0.30271,0.28678 -0.63728,-0.0159 -1.68879,-0.0319 -2.11894,-0.0637 -3.42536,-0.0637 l -4.5406,0 q -2.6447,0 -4.92297,0.0956 -0.31864,0 -0.36644,-0.28678 -0.0319,-0.3027 -0.0319,-1.01964 z m -2.86775,6.75514 q 1.99149,0.15932 5.05043,0.15932 l 12.69775,0 q 1.22676,0 1.48167,-0.17525 0.0797,-0.0637 0.19118,-0.0637 0.17525,0 0.31864,0.12746 0.31864,0.27084 0.55762,0.58948 0.0956,0.14338 0.0956,0.28677 0,0.17525 -0.15932,0.28678 -0.31864,0.22304 -0.55762,0.84439 -4.1901,10.2283 -14.68924,15.24686 -0.17525,0.0797 -0.30271,0.0797 -0.12745,0 -0.20711,-0.0797 -0.30271,-0.30271 -0.95592,-0.55762 11.24795,-5.30533 15.10347,-15.50177 l -13.54214,0 q -2.78809,0 -4.52467,0.0956 -0.0956,0.0159 -0.15932,0.0159 -0.23898,0 -0.30271,-0.27084 -0.0956,-0.49389 -0.0956,-1.08337 z" />
      <path
         id="path4745"
         style="font-style:normal;font-variant:normal;font-weight:300;font-stretch:normal;font-size:32.62860107px;line-height:120.00000477%;font-family:'Yu Gothic';-inkscape-font-specification:'Yu Gothic Light';text-align:start;letter-spacing:18.12699699px;text-anchor:start"
         d="m 330.24558,967.3675 0.68507,-0.41423 q 0.0797,-0.0478 0.14339,-0.0478 0.11152,0 0.25491,0.17525 1.27455,1.59319 2.53318,4.44501 0.0478,0.0956 0.0478,0.14338 0,0.0956 -0.14339,0.17525 -0.43016,0.25492 -0.58948,0.33458 -0.0637,0.0159 -0.11152,0.0159 -0.0956,0 -0.17525,-0.19119 -1.21083,-2.9474 -2.6447,-4.63619 z m 6.32497,-1.4976 0.68508,-0.3983 q 0.0637,-0.0159 0.12745,-0.0159 0.14339,0 0.23898,0.15932 1.24269,1.70472 2.342,4.42908 0.0319,0.0637 0.0319,0.0956 0,0.12745 -0.15932,0.20711 l -0.55762,0.28678 q -0.0797,0.0319 -0.12745,0.0319 -0.0956,0 -0.15932,-0.15932 -0.97185,-2.6447 -2.42166,-4.63619 z m 10.21237,0.25491 q 0.93999,0.22305 1.37015,0.55762 0.12746,0.0956 0.12746,0.27084 0,0.15932 -0.12746,0.25491 -0.38237,0.31864 -0.84439,1.40201 -2.11895,5.13008 -4.79551,8.52359 -3.07487,3.85553 -6.97819,6.19752 -0.11153,0.0478 -0.20712,0.0478 -0.11152,0 -0.15932,-0.0478 -0.36643,-0.36644 -0.90812,-0.43016 4.17417,-2.37386 7.40835,-6.38871 2.97927,-3.69621 4.6362,-8.30054 0.3505,-0.95591 0.47795,-2.08708 z" />
      <path
         id="path4747"
         style="font-style:normal;font-variant:normal;font-weight:300;font-stretch:normal;font-size:32.62860107px;line-height:120.00000477%;font-family:'Yu Gothic';-inkscape-font-specification:'Yu Gothic Light';text-align:start;letter-spacing:18.12699699px;text-anchor:start"
         d="m 388.34578,962.57199 8.7307,-0.19118 q 1.09931,-0.0478 1.40201,-0.19119 0.11153,-0.0637 0.22305,-0.0637 0.14339,0 0.30271,0.12745 0.27084,0.17525 0.62134,0.58948 0.19119,0.20712 0.19119,0.3983 0,0.11152 -0.0956,0.20712 -0.31864,0.28677 -0.62134,0.98778 -3.05893,6.69141 -6.29312,10.45134 -4.68398,5.41686 -10.6266,8.84223 -0.0797,0.0319 -0.15932,0.0319 -0.11152,0 -0.17525,-0.0637 -0.39829,-0.3505 -1.11523,-0.60541 6.59582,-3.58468 11.10456,-8.96968 3.71214,-4.41314 6.32497,-10.69033 l -10.5788,0.25491 q -3.48909,4.44501 -6.97819,7.50395 -0.15932,0.12745 -0.28677,0.12745 -0.0478,0 -0.0956,-0.0319 -0.55762,-0.31864 -1.11524,-0.46203 5.56025,-4.47687 8.58731,-9.49543 1.33829,-2.23047 1.68879,-3.90333 0.78066,0.31864 1.37014,0.8444 0.17526,0.17525 0.17526,0.33457 0,0.15932 -0.17526,0.28677 -0.39829,0.28678 -0.93998,1.21083 -1.25862,2.15081 -1.46574,2.46945 z" />
      <path
         id="path4749"
         style="font-style:normal;font-variant:normal;font-weight:300;font-stretch:normal;font-size:65.25720215px;line-height:120.00000477%;font-family:'Yu Gothic';-inkscape-font-specification:'Yu Gothic Light';text-align:start;letter-spacing:0px;text-anchor:start"
         d="m 159.03925,1005.7056 -2.67657,0.9878 q -1.62505,-5.6399 -5.51245,-8.44391 -3.3457,-2.45352 -8.06155,-2.45352 -7.64733,0 -12.172,6.62773 -4.1423,6.0541 -4.1423,15.7407 0,11.1842 5.19381,17.3339 4.36535,5.1939 11.12049,5.1939 7.87037,0 11.50285,-6.4365 2.70843,-4.8434 2.70843,-12.5544 l -14.62551,0 0,-2.3579 17.11089,0 0,22.9101 -2.10301,0 -0.31864,-9.0175 q -2.07115,5.1301 -6.18159,7.6792 -3.53689,2.1986 -8.09342,2.1986 -8.92189,0 -14.30688,-7.4243 -4.87517,-6.7232 -4.87517,-17.4614 0,-12.172 6.40463,-19.15015 5.22568,-5.70364 12.77742,-5.70364 6.27718,0 10.67439,3.75994 3.75994,3.18635 5.57618,8.57135 z" />
      <path
         id="path4751"
         style="font-style:normal;font-variant:normal;font-weight:300;font-stretch:normal;font-size:65.25720215px;line-height:120.00000477%;font-family:'Yu Gothic';-inkscape-font-specification:'Yu Gothic Light';text-align:start;letter-spacing:0px;text-anchor:start"
         d="m 187.90791,993.37431 q 8.85816,0 14.14756,7.32869 4.84331,6.7233 4.84331,17.3977 0,12.2994 -6.21346,19.2458 -5.16194,5.7673 -12.77741,5.7673 -8.89002,0 -14.21128,-7.4243 -4.84331,-6.7232 -4.84331,-17.4614 0,-12.2357 6.24532,-19.15015 5.16194,-5.70364 12.80927,-5.70364 z m 0,2.42166 q -7.74292,0 -12.17199,6.62773 -4.01485,6.0222 -4.01485,15.7407 0,11.1842 5.16194,17.3658 4.33349,5.162 11.0249,5.162 7.71106,0 12.14014,-6.7233 3.98298,-6.0223 3.98298,-15.8045 0,-11.1524 -5.13008,-17.2383 -4.30162,-5.13013 -10.99304,-5.13013 z" />
      <path
         id="path4753"
         style="font-style:normal;font-variant:normal;font-weight:300;font-stretch:normal;font-size:65.25720215px;line-height:120.00000477%;font-family:'Yu Gothic';-inkscape-font-specification:'Yu Gothic Light';text-align:start;letter-spacing:0px;text-anchor:start"
         d="m 262.37377,994.23464 0,48.01886 -2.67657,0 0,-32.6286 0.12746,-13.09606 -0.44609,0 q -2.48539,6.94636 -4.84331,12.90486 l -12.90487,32.8198 -3.47316,0 -12.90487,-32.8198 q -2.58097,-6.5958 -4.84331,-12.90486 l -0.44609,0 0.12746,13.09606 0,32.6286 -2.61284,0 0,-48.01886 4.55653,0 12.74555,32.37366 q 2.35793,5.8948 4.9389,13.351 l 0.47796,0 q 2.58097,-7.6792 4.74771,-13.1598 l 12.80928,-32.56486 4.62026,0 z" />
      <path
         id="path4755"
         style="font-style:normal;font-variant:normal;font-weight:300;font-stretch:normal;font-size:65.25720215px;line-height:120.00000477%;font-family:'Yu Gothic';-inkscape-font-specification:'Yu Gothic Light';text-align:start;letter-spacing:0px;text-anchor:start"
         d="m 278.6562,994.23464 0,48.01886 -2.67656,0 0,-48.01886 2.67656,0 z" />
      <path
         id="path4757"
         style="font-style:normal;font-variant:normal;font-weight:300;font-stretch:normal;font-size:65.25720215px;line-height:120.00000477%;font-family:'Yu Gothic';-inkscape-font-specification:'Yu Gothic Light';text-align:start;letter-spacing:0px;text-anchor:start"
         d="m 322.11852,994.23464 0,2.35792 -15.9638,0 0,45.66094 -2.67656,0 0,-45.66094 -15.86821,0 0,-2.35792 34.50857,0 z" />
      <path
         id="path4759"
         style="font-style:normal;font-variant:normal;font-weight:300;font-stretch:normal;font-size:65.25720215px;line-height:120.00000477%;font-family:'Yu Gothic';-inkscape-font-specification:'Yu Gothic Light';text-align:start;letter-spacing:0px;text-anchor:start"
         d="m 331.04041,994.23464 14.94416,0 q 8.53952,0 12.58623,3.63248 3.3457,2.99518 3.3457,8.31648 0,4.907 -3.12266,8.1253 -2.80402,2.8996 -7.77478,3.8874 l 12.01268,24.0572 -3.0908,0 -11.59845,-23.6749 q -1.72064,0.1275 -2.74029,0.1275 l -11.88522,0 0,23.5474 -2.67657,0 0,-48.01886 z m 2.67657,2.35792 0,19.81934 11.69404,0 q 13.70146,0 13.70146,-10.1646 0,-5.2257 -3.50502,-7.55172 -3.21825,-2.10302 -9.81407,-2.10302 l -12.07641,0 z" />
      <path
         id="path4761"
         style="font-style:normal;font-variant:normal;font-weight:300;font-stretch:normal;font-size:65.25720215px;line-height:120.00000477%;font-family:'Yu Gothic';-inkscape-font-specification:'Yu Gothic Light';text-align:start;letter-spacing:0px;text-anchor:start"
         d="m 387.40759,994.23464 16.37803,48.01886 -2.93148,0 -5.57618,-16.633 -19.37323,0 -5.60804,16.633 -2.86775,0 16.44176,-48.01886 3.53689,0 z m 7.10564,29.09176 -4.55653,-13.7015 q -1.87997,-5.4806 -4.11044,-13.09606 l -0.47796,0 q -1.65692,5.89486 -4.11044,13.03236 l -4.62026,13.7652 17.87563,0 z" />
      <path
         id="path4763"
         style="font-style:normal;font-variant:normal;font-weight:300;font-stretch:normal;font-size:65.25720215px;line-height:120.00000477%;font-family:'Yu Gothic';-inkscape-font-specification:'Yu Gothic Light';text-align:start;letter-spacing:0px;text-anchor:start"
         d="m 443.90224,1006.1199 -2.67657,0.9559 q -3.12266,-11.27983 -13.70146,-11.27983 -7.64733,0 -12.172,6.62773 -4.1423,6.0541 -4.1423,15.7407 0,11.1205 5.32127,17.3658 4.39721,5.162 10.99303,5.162 11.05676,0 14.08383,-11.6304 l 2.67657,1.2427 q -4.26976,12.8093 -16.7604,12.8093 -8.79443,0 -14.21128,-7.4243 -4.97077,-6.787 -4.97077,-17.4614 0,-12.172 6.40464,-19.15015 5.22567,-5.70364 12.77741,-5.70364 6.34091,0 10.73812,3.7918 3.7918,3.28199 5.63991,8.95379 z" />
      <path
         id="path4765"
         style="font-style:normal;font-variant:normal;font-weight:300;font-stretch:normal;font-size:65.25720215px;line-height:120.00000477%;font-family:'Yu Gothic';-inkscape-font-specification:'Yu Gothic Light';text-align:start;letter-spacing:0px;text-anchor:start"
         d="m 485.8988,994.23464 -18.79968,19.43696 21.06201,28.5819 -3.37757,0 -19.37323,-26.8294 -9.20866,9.5273 0,17.3021 -2.67656,0 0,-48.01886 2.67656,0 0,27.65786 26.09651,-27.65786 3.60062,0 z" />
    </g>
    <g
       transform="matrix(0.15598786,0,0,0.15598786,4.7071068,955.69544)"
       id="g4713">
	<g
   id="g4715">
		<g
   id="g4717">
			<g
   id="g4719">
				<path
   d="m 99.777,446.086 c -6.699,12.031 -12.031,30.133 -12.031,41.539 0,2.648 0,6.016 0.656,10.688 L 4.676,354.32 C 1.996,349.648 0,342.945 0,336.906 0,330.859 1.996,323.508 4.676,318.828 L 44.871,248.5 0,223.07 146.016,220.367 217,348.281 171.473,322.164 99.777,446.086 Z M 164.09,40.227 c 12.715,-22.125 33.496,-34.18 58.926,-34.18 27.48,0 48.918,12.742 64.312,38.828 L 310.105,83.047 231.054,219.711 103.14,145.359 164.09,40.227 Z m 9.351,521.718 c -38.172,0 -69.645,-31.477 -69.645,-69.648 0,-10.719 4.703,-28.82 11.402,-40.195 l 21.41,-38.172 158.758,0 0,148.016 -121.925,0 z M 300.727,36.18 C 290.691,18.789 277.293,6.703 261.215,0 l 164.746,0 c 14.738,0 26.113,6.047 32.84,17.445 l 40.852,69.648 44.191,-26.141 -71.016,127.281 -145.305,-2.047 44.871,-25.43 L 300.727,36.18 Z M 554.59,415.273 c 20.07,0 36.832,-5.359 50.887,-16.055 l -83.07,144.648 c -6.699,11.375 -18.73,18.078 -32.789,18.078 l -78.395,0 0,51.57 -75.004,-125.234 75.004,-125.266 0,52.258 143.367,0 z m 64.258,-120.562 c 6.043,10.719 9.406,22.094 9.406,34.156 0,24.117 -15.422,49.57 -36.832,61.602 -10.062,5.391 -24.145,8.75 -38.172,8.75 l -44.242,0 -79,-136.664 127.918,-73.008 60.922,105.164 z"
   id="path4721" />

			</g>

		</g>

	</g>

</g>
  </g>
</svg>
