<?xml version="1.0" encoding="UTF-8" standalone="no"?>
<svg
   xmlns:dc="http://purl.org/dc/elements/1.1/"
   xmlns:cc="http://creativecommons.org/ns#"
   xmlns:rdf="http://www.w3.org/1999/02/22-rdf-syntax-ns#"
   xmlns:svg="http://www.w3.org/2000/svg"
   xmlns="http://www.w3.org/2000/svg"
   version="1.1"
   id="svg2"
   viewBox="0 0 3000 1000"
   height="1000"
   width="3000">
  <defs
     id="defs4" />
  <metadata
     id="metadata7">
    <rdf:RDF>
      <cc:Work
         rdf:about="">
        <dc:format>image/svg+xml</dc:format>
        <dc:type
           rdf:resource="http://purl.org/dc/dcmitype/StillImage" />
        <dc:title></dc:title>
      </cc:Work>
    </rdf:RDF>
  </metadata>
  <g
     transform="translate(0,-52.362161)"
     id="layer1">
    <circle
       r="500"
       cy="552.36218"
       cx="500"
       id="path3398" />
    <g
       id="text3336"
       style="font-style:normal;font-weight:normal;font-size:704.66809082px;line-height:81.99999928%;font-family:sans-serif;letter-spacing:0px;word-spacing:0px;fill:#ffffff;fill-opacity:1;stroke:none;stroke-width:1px;stroke-linecap:butt;stroke-linejoin:miter;stroke-opacity:1">
      <path
         id="path4246"
         style="font-style:normal;font-variant:normal;font-weight:500;font-stretch:normal;font-size:631.24932861px;line-height:81.99999928%;font-family:'Yu Gothic';-inkscape-font-specification:'Yu Gothic Medium';text-align:start;letter-spacing:56.51348495px;text-anchor:start;fill:#000000;fill-opacity:1"
         d="m 1412.3306,181.20112 -53.6315,13.87023 q -24.6582,-97.399801 -113.1194,-97.399801 -66.5771,0 -103.8726,56.713811 -33.905,51.47394 -33.905,139.01047 0,100.48207 42.2272,151.95601 35.7543,43.76827 94.934,43.76827 59.1796,0 90.927,-50.24104 25.2746,-40.06954 27.7404,-102.63966 l -122.9826,0 0,-44.69295 174.7648,0 0,236.10205 -38.5284,0 -6.1645,-74.59099 q -19.7266,41.9189 -56.7139,63.18658 -32.3638,18.49363 -73.358,18.49363 -91.8517,0 -143.9421,-71.20048 -46.8506,-64.11126 -46.8506,-169.52497 0,-119.90038 62.8784,-186.16923 52.7068,-55.480901 132.2295,-55.480901 68.4264,0 113.7358,39.76131 37.6037,33.288541 53.6315,89.077661 z" />
      <path
         id="path4248"
         style="font-style:normal;font-variant:normal;font-weight:500;font-stretch:normal;font-size:631.24932861px;line-height:81.99999928%;font-family:'Yu Gothic';-inkscape-font-specification:'Yu Gothic Medium';text-align:start;letter-spacing:56.51348495px;text-anchor:start;fill:#000000;fill-opacity:1"
         d="m 1757.9612,52.362149 q 92.16,0 144.5586,71.200481 47.467,64.11126 47.467,169.21674 0,120.20862 -61.3372,186.47747 -51.474,55.48089 -130.6884,55.48089 -91.5434,0 -144.2503,-71.50871 -47.467,-64.41949 -47.467,-168.90851 0,-120.51684 61.6455,-186.47746 51.4739,-55.480901 130.0718,-55.480901 z m 0,45.3094 q -65.0359,0 -101.0985,56.405581 -32.6721,51.47394 -32.6721,139.3187 0,100.17384 42.2272,152.26424 35.1379,43.46004 91.5434,43.46004 65.6524,0 101.4068,-56.71381 32.6721,-51.16572 32.6721,-139.01047 0,-100.7903 -41.9189,-152.57247 -35.1379,-43.151811 -92.16,-43.151811 z" />
      <path
         id="path4250"
         style="font-style:normal;font-variant:normal;font-weight:500;font-stretch:normal;font-size:631.24932861px;line-height:81.99999928%;font-family:'Yu Gothic';-inkscape-font-specification:'Yu Gothic Medium';text-align:start;letter-spacing:56.51348495px;text-anchor:start;fill:#000000;fill-opacity:1"
         d="m 2559.7681,60.684284 0,465.114866 -52.3986,0 0,-273.39754 1.2329,-147.02438 -10.7879,0 q -23.4253,87.53653 -40.9943,143.32565 l -87.5365,277.09627 -70.2758,0 -85.6872,-276.47981 q -9.555,-29.89804 -22.8088,-76.13212 -14.7949,-52.0904 -19.4183,-67.80999 l -10.7879,0 q -0.3083,10.1715 -0.3083,21.5759 l 1.5412,126.37316 0,272.47286 -49.3164,0 0,-465.114866 92.16,0 83.2213,274.013986 q 6.1645,20.343 22.5006,74.89922 12.3291,41.9189 20.0348,66.8853 l 10.7879,0 q 3.3905,-10.78795 43.46,-140.55161 l 84.4543,-275.246896 90.927,0 z" />
      <path
         id="path4252"
         style="font-style:normal;font-variant:normal;font-weight:500;font-stretch:normal;font-size:631.24932861px;line-height:81.99999928%;font-family:'Yu Gothic';-inkscape-font-specification:'Yu Gothic Medium';text-align:start;letter-spacing:56.51348495px;text-anchor:start;fill:#000000;fill-opacity:1"
         d="m 2804.3002,60.684284 0,465.114866 -54.8645,0 0,-465.114866 54.8645,0 z" />
      <path
         id="path4254"
         style="font-style:normal;font-variant:normal;font-weight:500;font-stretch:normal;font-size:631.24932861px;line-height:81.99999928%;font-family:'Yu Gothic';-inkscape-font-specification:'Yu Gothic Medium';text-align:start;letter-spacing:-19.42305565px;text-anchor:start;fill:#000000;fill-opacity:1"
         d="m 1381.1997,578.30873 0,46.85053 -145.7915,0 0,418.26434 -55.4809,0 0,-418.26434 -144.5586,0 0,-46.85053 345.831,0 z" />
      <path
         id="path4256"
         style="font-style:normal;font-variant:normal;font-weight:500;font-stretch:normal;font-size:631.24932861px;line-height:81.99999928%;font-family:'Yu Gothic';-inkscape-font-specification:'Yu Gothic Medium';text-align:start;letter-spacing:-19.42305565px;text-anchor:start;fill:#000000;fill-opacity:1"
         d="m 1453.3201,578.30873 156.5794,0 q 159.6617,0 159.6617,121.74975 0,47.15876 -28.0487,78.28971 -25.5828,28.66513 -70.584,38.83663 l 111.27,226.23878 -60.7207,0 -102.3315,-217.30019 -112.1947,0 0,217.30019 -53.6315,0 0,-465.11487 z m 53.6315,44.07649 0,160.8946 95.8587,0 q 110.6536,0 110.6536,-82.60489 0,-41.9189 -27.7405,-60.72076 -25.8911,-17.56895 -78.9062,-17.56895 l -99.8656,0 z" />
      <path
         id="path4258"
         style="font-style:normal;font-variant:normal;font-weight:500;font-stretch:normal;font-size:631.24932861px;line-height:81.99999928%;font-family:'Yu Gothic';-inkscape-font-specification:'Yu Gothic Medium';text-align:start;letter-spacing:-19.42305565px;text-anchor:start;fill:#000000;fill-opacity:1"
         d="m 2031.8578,578.30873 149.4902,465.11487 -57.3302,0 -45.0012,-147.64084 -165.8262,0 -46.8506,147.64084 -53.6315,0 149.4902,-465.11487 69.6593,0 z m 35.1379,274.63044 -34.5214,-113.11938 q -13.562,-43.46004 -32.9803,-119.28393 l -9.5551,0 q -15.7196,65.65239 -32.0556,118.66747 l -34.2132,113.73584 143.3256,0 z" />
      <path
         id="path4260"
         style="font-style:normal;font-variant:normal;font-weight:500;font-stretch:normal;font-size:631.24932861px;line-height:81.99999928%;font-family:'Yu Gothic';-inkscape-font-specification:'Yu Gothic Medium';text-align:start;letter-spacing:-19.42305565px;text-anchor:start;fill:#000000;fill-opacity:1"
         d="m 2574.6412,703.14075 -54.5562,14.79491 q -23.4253,-102.63967 -112.8112,-102.63967 -65.6524,0 -102.9479,56.71381 -34.2132,51.78217 -34.2132,139.01047 0,99.24917 44.0765,151.95602 36.679,43.76831 93.0846,43.76831 94.6258,0 118.051,-104.18085 l 52.3986,17.87718 q -37.9119,131.92127 -171.0661,131.92127 -92.1599,0 -145.7914,-71.50873 -48.6999,-64.41949 -48.6999,-168.90852 0,-120.20861 62.5701,-186.47746 52.3986,-55.4809 131.9212,-55.4809 69.3512,0 114.6606,40.06954 38.5284,34.21322 53.3233,93.08462 z" />
      <path
         id="path4262"
         style="font-style:normal;font-variant:normal;font-weight:500;font-stretch:normal;font-size:631.24932861px;line-height:81.99999928%;font-family:'Yu Gothic';-inkscape-font-specification:'Yu Gothic Medium';text-align:start;letter-spacing:-19.42305565px;text-anchor:start;fill:#000000;fill-opacity:1"
         d="m 2982.7293,578.30873 -169.8332,187.40214 187.4022,277.71273 -64.1113,0 -159.3535,-240.41723 -71.2004,75.20744 0,165.20979 -54.248,0 0,-465.11487 54.248,0 0,237.95141 211.4438,-237.95141 65.6524,0 z" />
    </g>
    <circle
       style="fill:none"
       id="circle4224"
       cx="500"
       cy="552.36218"
       r="500" />
  </g>
</svg>
