<?xml version="1.0" encoding="UTF-8" standalone="no" ?>
<!-- Created with Inkscape (http://www.inkscape.org/) -->
<svg
  xmlns:dc="http://purl.org/dc/elements/1.1/"
  xmlns:cc="http://creativecommons.org/ns#"
  xmlns:rdf="http://www.w3.org/1999/02/22-rdf-syntax-ns#"
  xmlns:svg="http://www.w3.org/2000/svg"
  xmlns="http://www.w3.org/2000/svg"
  xmlns:sodipodi="http://sodipodi.sourceforge.net/DTD/sodipodi-0.dtd"
  xmlns:inkscape="http://www.inkscape.org/namespaces/inkscape"
  width="400"
  height="100"
  viewBox="0 0 400 100"
  id="svg2"
  version="1.1"
  inkscape:version="0.91 r13725"
  sodipodi:docname="logo3.svg"
>
  <defs id="defs4" />
  <sodipodi:namedview
    id="base"
    pagecolor="#ffffff"
    bordercolor="#666666"
    borderopacity="1.0"
    inkscape:pageopacity="0.0"
    inkscape:pageshadow="2"
    inkscape:zoom="1"
    inkscape:cx="110.70201"
    inkscape:cy="45.809065"
    inkscape:document-units="px"
    inkscape:current-layer="layer1"
    showgrid="false"
    units="px"
    inkscape:window-width="1366"
    inkscape:window-height="715"
    inkscape:window-x="-8"
    inkscape:window-y="-8"
    inkscape:window-maximized="1"
  />
  <metadata id="metadata7">
    <rdf:RDF>
      <cc:Work rdf:about="">
        <dc:format>image/svg+xml</dc:format>
        <dc:type rdf:resource="http://purl.org/dc/dcmitype/StillImage" />
        <dc:title />
      </cc:Work>
    </rdf:RDF>
  </metadata>
  <g
    inkscape:label="Layer 1"
    inkscape:groupmode="layer"
    id="layer1"
    transform="translate(0,-952.36216)"
  >
    <g
      style="font-style:normal;font-weight:normal;font-size:38.05844879px;line-height:120.00000477%;font-family:sans-serif;letter-spacing:0px;word-spacing:0px;fill:#000000;fill-opacity:1;stroke:none;stroke-width:1px;stroke-linecap:butt;stroke-linejoin:miter;stroke-opacity:1"
      id="text4136"
    >
      <path
        d="m 22.863722,977.85136 0,-14.45407 -13.6017842,0 q -2.556857,0 -5.200682,0.10436 -0.4000524,0 -0.4348396,-0.36526 -0.034787,-0.34788 -0.034787,-1.06101 2.139411,0.13915 5.705096,0.13915 l 8.122804,0 q 0.243511,0 6.313872,-0.10437 0.504414,0 0.504414,0.36527 0,0.0696 -0.01739,0.13915 -0.06957,1.53063 -0.06957,5.06153 l 0,7.3227 q 0,2.92212 0.104361,5.77467 0,0.36527 -0.347871,0.36527 l -0.67835,0 q -0.365265,0 -0.365265,-0.36527 l 0,-1.73936 -13.7583264,0 q -3.7396209,0 -5.4094051,0.10436 -0.052181,0.0174 -0.1217551,0.0174 -0.2261166,0 -0.2609037,-0.33048 -0.034787,-0.40005 -0.034787,-1.0784 1.5306355,0.10436 3.9135567,0.10436 l 1.9132944,0 13.7583264,0 z m 0.539201,-19.86348 0.817498,-0.57398 q 0.08697,-0.0522 0.121755,-0.0522 0.05218,0 0.139149,0.0522 1.948082,1.32191 3.774408,4.01791 0.05218,0.0696 0.05218,0.13915 0,0.087 -0.08697,0.15655 l -0.643563,0.5218 q -0.08697,0.0696 -0.156542,0.0696 -0.104362,0 -0.173936,-0.10436 -1.582816,-2.55686 -3.843982,-4.22665 z m 2.643825,-2.00026 0.678349,-0.57399 q 0.08697,-0.087 0.156543,-0.087 0.05218,0 0.121755,0.0522 2.400315,1.80893 3.809195,4.10488 0.03479,0.0696 0.03479,0.13915 0,0.10436 -0.104361,0.17394 l -0.608776,0.50441 q -0.05218,0.0348 -0.121755,0.0348 -0.121755,0 -0.156542,-0.0696 -1.478455,-2.53946 -3.809195,-4.27882 z"
        style="font-style:normal;font-variant:normal;font-weight:300;font-stretch:normal;font-size:35.62206268px;line-height:120.00000477%;font-family:'Yu Gothic';-inkscape-font-specification:'Yu Gothic Light';text-align:start;letter-spacing:19.79003525px;text-anchor:start"
        id="path4147"
      />
      <path
        d="m 64.778397,957.69219 q 0.347872,-0.76531 0.43484,-0.95664 0.121755,-0.26091 0.313084,-0.26091 0.05218,0 0.139149,0.0174 7.757539,1.70457 12.262478,3.84398 0.278297,0.19133 0.278297,0.33048 0,0.0696 -0.03479,0.17393 -0.208723,0.52181 -0.330478,0.74793 -0.08697,0.17393 -0.208723,0.17393 -0.139149,0 -0.417446,-0.13915 -5.148501,-2.60903 -12.436414,-3.93095 z m -2.382921,9.47951 q 0.278297,-0.71314 0.400053,-0.97404 0.06957,-0.13915 0.208723,-0.13915 0.08697,0 0.24351,0.0348 5.426798,1.28712 10.366577,3.56568 0.313084,0.15654 0.313084,0.31308 0,0.087 -0.05218,0.22612 l -0.295691,0.57399 q -0.08697,0.19133 -0.24351,0.19133 -0.104361,0 -0.295691,-0.087 -5.026746,-2.46989 -10.644874,-3.70483 z m -0.782711,11.35801 q 0.156542,-0.34787 0.469627,-0.88707 0.121755,-0.24351 0.347871,-0.24351 0.06958,0 0.173936,0.0348 10.557906,2.33074 16.489119,5.54856 0.208723,0.10436 0.208723,0.29569 0,0.12175 -0.05218,0.24351 -0.104361,0.2609 -0.295691,0.5392 -0.121755,0.19133 -0.278297,0.19133 -0.104362,0 -0.24351,-0.087 -3.670047,-1.94808 -8.783761,-3.58308 -4.070099,-1.28712 -8.035836,-2.05244 z"
        style="font-style:normal;font-variant:normal;font-weight:300;font-stretch:normal;font-size:35.62206268px;line-height:120.00000477%;font-family:'Yu Gothic';-inkscape-font-specification:'Yu Gothic Light';text-align:start;letter-spacing:19.79003525px;text-anchor:start"
        id="path4149"
      />
      <path
        d="m 123.99969,966.42377 q 5.89643,1.58282 12.07115,5.13111 0.20872,0.10436 0.20872,0.22612 0,0.0696 -0.0348,0.12175 -0.19133,0.45224 -0.38265,0.74793 -0.13915,0.19133 -0.26091,0.19133 -0.087,0 -0.2783,-0.12176 -4.81802,-3.16563 -11.32322,-4.97456 l 0,9.93173 q 0,3.13085 0.10436,6.38345 0,0.41744 -0.34787,0.41744 l -0.8001,0 q -0.34788,0 -0.34788,-0.45223 0.10437,-3.20042 0.10437,-6.31387 l 0,-18.29805 q 0,-2.33074 -0.20873,-3.93095 1.04362,0.0696 1.635,0.2609 0.2783,0.0696 0.2783,0.34787 0,0.17394 -0.13915,0.40006 -0.2783,0.46962 -0.2783,2.76558 l 0,7.16615 z"
        style="font-style:normal;font-variant:normal;font-weight:300;font-stretch:normal;font-size:35.62206268px;line-height:120.00000477%;font-family:'Yu Gothic';-inkscape-font-specification:'Yu Gothic Light';text-align:start;letter-spacing:19.79003525px;text-anchor:start"
        id="path4151"
      />
      <path
        d="m 172.75005,958.05746 q 1.96547,0.17393 5.80946,0.17393 l 4.95717,0 q 3.63526,0 5.58334,-0.13914 0.0696,-0.0174 0.12175,-0.0174 0.20873,0 0.20873,0.33048 l 0,0.76532 q 0,0.31308 -0.33048,0.31308 -0.69574,-0.0174 -1.84372,-0.0348 -2.31335,-0.0696 -3.73962,-0.0696 l -4.95717,0 q -2.88734,0 -5.37462,0.10436 -0.34787,0 -0.40005,-0.31308 -0.0348,-0.33048 -0.0348,-1.11319 z m -3.13085,7.37488 q 2.1742,0.17393 5.51377,0.17393 l 13.86269,0 q 1.3393,0 1.6176,-0.19132 0.087,-0.0696 0.20872,-0.0696 0.19133,0 0.34788,0.13915 0.34787,0.29569 0.60877,0.64356 0.10436,0.15654 0.10436,0.31309 0,0.19133 -0.17393,0.31308 -0.34787,0.24351 -0.60878,0.92186 -4.57451,11.16668 -16.03688,16.64566 -0.19133,0.087 -0.33048,0.087 -0.13915,0 -0.22612,-0.087 -0.33048,-0.33048 -1.04361,-0.60877 12.27987,-5.79207 16.48911,-16.92396 l -14.78454,0 q -3.04388,0 -4.93978,0.10436 -0.10436,0.0174 -0.17394,0.0174 -0.2609,0 -0.33047,-0.29569 -0.10437,-0.5392 -0.10437,-1.18276 z"
        style="font-style:normal;font-variant:normal;font-weight:300;font-stretch:normal;font-size:35.62206268px;line-height:120.00000477%;font-family:'Yu Gothic';-inkscape-font-specification:'Yu Gothic Light';text-align:start;letter-spacing:19.79003525px;text-anchor:start"
        id="path4153"
      />
      <path
        d="m 226.59672,966.70207 0.74792,-0.45223 q 0.087,-0.0522 0.15655,-0.0522 0.12175,0 0.27829,0.19133 1.39149,1.73935 2.76558,4.85281 0.0522,0.10436 0.0522,0.15654 0,0.10436 -0.15655,0.19133 -0.46962,0.2783 -0.64356,0.36526 -0.0696,0.0174 -0.12176,0.0174 -0.10436,0 -0.19132,-0.20873 -1.32192,-3.21781 -2.88734,-5.06153 z m 6.90525,-1.635 0.74793,-0.43484 q 0.0696,-0.0174 0.13915,-0.0174 0.15654,0 0.2609,0.17394 1.3567,1.86111 2.55686,4.83541 0.0348,0.0696 0.0348,0.10436 0,0.13915 -0.17393,0.22612 l -0.60878,0.31309 q -0.087,0.0348 -0.13915,0.0348 -0.10436,0 -0.17393,-0.17393 -1.06101,-2.88734 -2.64383,-5.06154 z m 11.14929,0.2783 q 1.02622,0.24351 1.49585,0.60878 0.13915,0.10436 0.13915,0.29569 0,0.17393 -0.13915,0.27829 -0.41745,0.34788 -0.92186,1.53064 -2.31335,5.60073 -5.23547,9.30557 -3.35696,4.20925 -7.61839,6.7661 -0.12175,0.0522 -0.22612,0.0522 -0.12175,0 -0.17393,-0.0522 -0.40005,-0.40005 -0.99144,-0.46962 4.55712,-2.59165 8.08802,-6.97483 3.2526,-4.03531 5.06153,-9.06206 0.38266,-1.04361 0.52181,-2.27856 z"
        style="font-style:normal;font-variant:normal;font-weight:300;font-stretch:normal;font-size:35.62206268px;line-height:120.00000477%;font-family:'Yu Gothic';-inkscape-font-specification:'Yu Gothic Light';text-align:start;letter-spacing:19.79003525px;text-anchor:start"
        id="path4155"
      />
      <path
        d="m 290.02726,961.4666 9.53168,-0.20872 q 1.20016,-0.0522 1.53064,-0.20872 0.12175,-0.0696 0.24351,-0.0696 0.15654,0 0.33048,0.13915 0.29569,0.19133 0.67835,0.64356 0.20872,0.22612 0.20872,0.43484 0,0.12176 -0.10436,0.22612 -0.34787,0.31308 -0.67835,1.0784 -3.33957,7.30531 -6.87047,11.41019 -5.11371,5.91382 -11.60152,9.65344 -0.087,0.0348 -0.17394,0.0348 -0.12175,0 -0.19133,-0.0696 -0.43484,-0.38266 -1.21755,-0.66096 7.20095,-3.91356 12.12333,-9.79259 4.05271,-4.81802 6.90526,-11.6711 l -11.54934,0.2783 q -3.8092,4.85281 -7.6184,8.19238 -0.17393,0.13915 -0.31308,0.13915 -0.0522,0 -0.10436,-0.0348 -0.60878,-0.34787 -1.21755,-0.50441 6.07036,-4.8876 9.37514,-10.36658 1.46106,-2.4351 1.84372,-4.26143 0.85229,0.34787 1.49585,0.92186 0.19133,0.19133 0.19133,0.36527 0,0.17393 -0.19133,0.31308 -0.43484,0.31309 -1.02622,1.32192 -1.3741,2.34813 -1.60021,2.696 z"
        style="font-style:normal;font-variant:normal;font-weight:300;font-stretch:normal;font-size:35.62206268px;line-height:120.00000477%;font-family:'Yu Gothic';-inkscape-font-specification:'Yu Gothic Light';text-align:start;letter-spacing:19.79003525px;text-anchor:start"
        id="path4157"
      />
      <path
        d="m 39.683319,1008.5575 -2.922123,1.0784 q -1.774146,-6.1574 -6.01818,-9.2186 -3.652653,-2.67864 -8.801154,-2.67864 -8.348921,0 -13.2886997,7.23574 -4.5223321,6.6096 -4.5223321,17.1849 0,12.2103 5.6703088,18.9242 4.765842,5.6703 12.140723,5.6703 8.592431,0 12.558168,-7.027 2.95691,-5.2877 2.95691,-13.7062 l -15.967312,0 0,-2.5742 18.680711,0 0,25.012 -2.295953,0 -0.347872,-9.8448 q -2.261166,5.6007 -6.748711,8.3837 -3.861376,2.4003 -8.835941,2.4003 -9.740408,0 -15.6194401,-8.1054 -5.32243709,-7.3401 -5.32243709,-19.0634 0,-13.2887 6.99222129,-20.9071 5.7050959,-6.22686 13.9496559,-6.22686 6.853072,0 11.653702,4.10489 4.104886,3.47867 6.087755,9.35777 z"
        style="font-style:normal;font-variant:normal;font-weight:300;font-stretch:normal;font-size:71.24412537px;line-height:120.00000477%;font-family:'Yu Gothic';-inkscape-font-specification:'Yu Gothic Light';text-align:start;letter-spacing:0px;text-anchor:start"
        id="path4159"
      />
      <path
        d="m 71.200494,995.09484 q 9.670834,0 15.445504,8.00106 5.28765,7.3401 5.28765,18.9938 0,13.4278 -6.783498,21.0114 -5.635522,6.2965 -13.949656,6.2965 -9.70562,0 -15.515078,-8.1054 -5.28765,-7.3401 -5.28765,-19.0634 0,-13.3582 6.818286,-20.9071 5.635521,-6.22686 13.984442,-6.22686 z m 0,2.64382 q -8.453282,0 -13.288699,7.23574 -4.383183,6.5748 -4.383183,17.1849 0,12.2103 5.635521,18.959 4.731055,5.6355 12.036361,5.6355 8.418495,0 13.253912,-7.3401 4.348397,-6.5748 4.348397,-17.2544 0,-12.1756 -5.600735,-18.8199 -4.696268,-5.60074 -12.001574,-5.60074 z"
        style="font-style:normal;font-variant:normal;font-weight:300;font-stretch:normal;font-size:71.24412537px;line-height:120.00000477%;font-family:'Yu Gothic';-inkscape-font-specification:'Yu Gothic Light';text-align:start;letter-spacing:0px;text-anchor:start"
        id="path4161"
      />
      <path
        d="m 152.49811,996.03409 0,52.42431 -2.92212,0 0,-35.6221 0.13915,-14.29753 -0.48702,0 q -2.7134,7.58363 -5.28765,14.08883 l -14.0888,35.8308 -3.7918,0 -14.08881,-35.8308 q -2.81776,-7.201 -5.28765,-14.08883 l -0.48702,0 0.13915,14.29753 0,35.6221 -2.85255,0 0,-52.42431 4.97457,0 13.91487,35.34381 q 2.57425,6.4356 5.39201,14.5758 l 0.5218,0 q 2.81776,-8.3837 5.18329,-14.3671 l 13.98445,-35.55251 5.04413,0 z"
        style="font-style:normal;font-variant:normal;font-weight:300;font-stretch:normal;font-size:71.24412537px;line-height:120.00000477%;font-family:'Yu Gothic';-inkscape-font-specification:'Yu Gothic Light';text-align:start;letter-spacing:0px;text-anchor:start"
        id="path4163"
      />
      <path
        d="m 170.27435,996.03409 0,52.42431 -2.92213,0 0,-52.42431 2.92213,0 z"
        style="font-style:normal;font-variant:normal;font-weight:300;font-stretch:normal;font-size:71.24412537px;line-height:120.00000477%;font-family:'Yu Gothic';-inkscape-font-specification:'Yu Gothic Light';text-align:start;letter-spacing:0px;text-anchor:start"
        id="path4165"
      />
      <path
        d="m 217.72405,996.03409 0,2.57425 -17.42837,0 0,49.85006 -2.92212,0 0,-49.85006 -17.32402,0 0,-2.57425 37.67451,0 z"
        style="font-style:normal;font-variant:normal;font-weight:300;font-stretch:normal;font-size:71.24412537px;line-height:120.00000477%;font-family:'Yu Gothic';-inkscape-font-specification:'Yu Gothic Light';text-align:start;letter-spacing:0px;text-anchor:start"
        id="path4167"
      />
      <path
        d="m 227.46447,996.03409 16.31518,0 q 9.32296,0 13.74093,3.96574 3.65266,3.26997 3.65266,9.07947 0,5.3572 -3.40915,8.8707 -3.06127,3.1656 -8.48807,4.244 l 13.11477,26.2644 -3.37436,0 -12.66253,-25.8469 q -1.87851,0.1391 -2.9917,0.1391 l -12.97561,0 0,25.7078 -2.92212,0 0,-52.42431 z m 2.92212,2.57425 0,21.63766 12.76689,0 q 14.95848,0 14.95848,-11.0971 0,-5.7051 -3.82658,-8.2446 -3.51351,-2.29596 -10.71445,-2.29596 l -13.18434,0 z"
        style="font-style:normal;font-variant:normal;font-weight:300;font-stretch:normal;font-size:71.24412537px;line-height:120.00000477%;font-family:'Yu Gothic';-inkscape-font-specification:'Yu Gothic Light';text-align:start;letter-spacing:0px;text-anchor:start"
        id="path4169"
      />
      <path
        d="m 289.00298,996.03409 17.8806,52.42431 -3.20042,0 -6.08775,-18.1589 -21.1506,0 -6.12254,18.1589 -3.13085,0 17.95018,-52.42431 3.86138,0 z m 7.75754,31.76071 -4.97457,-14.9585 q -2.05244,-5.9834 -4.48754,-14.29753 l -0.52181,0 q -1.80893,6.43563 -4.48755,14.22793 l -5.04414,15.0281 19.51561,0 z"
        style="font-style:normal;font-variant:normal;font-weight:300;font-stretch:normal;font-size:71.24412537px;line-height:120.00000477%;font-family:'Yu Gothic';-inkscape-font-specification:'Yu Gothic Light';text-align:start;letter-spacing:0px;text-anchor:start"
        id="path4171"
      />
      <path
        d="m 350.68062,1009.0097 -2.92212,1.0436 q -3.40914,-12.31464 -14.95848,-12.31464 -8.34893,0 -13.2887,7.23574 -4.52234,6.6096 -4.52234,17.1849 0,12.1407 5.80946,18.959 4.80063,5.6355 12.00158,5.6355 12.07114,0 15.37593,-12.6973 l 2.92212,1.3567 q -4.66148,13.9844 -18.29805,13.9844 -9.60126,0 -15.51508,-8.1054 -5.4268,-7.4097 -5.4268,-19.0634 0,-13.2887 6.99222,-20.9071 5.7051,-6.22686 13.94966,-6.22686 6.92264,0 11.72327,4.13967 4.13968,3.58309 6.15733,9.77519 z"
        style="font-style:normal;font-variant:normal;font-weight:300;font-stretch:normal;font-size:71.24412537px;line-height:120.00000477%;font-family:'Yu Gothic';-inkscape-font-specification:'Yu Gothic Light';text-align:start;letter-spacing:0px;text-anchor:start"
        id="path4173"
      />
      <path
        d="m 396.53013,996.03409 -20.52443,21.22021 22.99432,31.2041 -3.68744,0 -21.1506,-29.2908 -10.0535,10.4013 0,18.8895 -2.92212,0 0,-52.42431 2.92212,0 0,30.19531 28.4907,-30.19531 3.93095,0 z"
        style="font-style:normal;font-variant:normal;font-weight:300;font-stretch:normal;font-size:71.24412537px;line-height:120.00000477%;font-family:'Yu Gothic';-inkscape-font-specification:'Yu Gothic Light';text-align:start;letter-spacing:0px;text-anchor:start"
        id="path4175"
      />
    </g>
  </g>
</svg>
