<svg xmlns="http://www.w3.org/2000/svg" width="500" height="100"><g style="font-style:normal;font-weight:400;font-size:34.86024094px;line-height:120.00000477%;font-family:sans-serif;letter-spacing:0;word-spacing:0;fill:#000;fill-opacity:1;stroke:none;stroke-width:1px;stroke-linecap:butt;stroke-linejoin:miter;stroke-opacity:1"><path d="M143.633 977.58v-13.24h-12.459q-2.342 0-4.763.096-.367 0-.399-.335-.032-.318-.032-.971 1.96.127 5.226.127h7.44q.223 0 5.784-.096.462 0 .462.335 0 .064-.016.127-.064 1.403-.064 4.637v6.707q0 2.677.096 5.29 0 .334-.319.334h-.621q-.335 0-.335-.335v-1.593h-12.602q-3.425 0-4.955.096-.048.016-.111.016-.208 0-.24-.303-.031-.366-.031-.988 1.402.096 3.584.096h14.355m.494-18.194.749-.526q.08-.048.111-.048.048 0 .128.048 1.784 1.21 3.457 3.68.048.064.048.128 0 .08-.08.143l-.59.478q-.08.064-.143.064-.095 0-.16-.096-1.449-2.342-3.52-3.871m2.422-1.833.621-.525q.08-.08.143-.08.048 0 .112.048 2.198 1.657 3.489 3.76.032.063.032.127 0 .096-.096.16l-.557.462q-.048.031-.112.031-.111 0-.143-.063-1.354-2.326-3.49-3.92M182.025 959.115l.399-.876q.111-.24.287-.24.047 0 .127.016 7.106 1.562 11.232 3.521.255.176.255.303 0 .064-.032.16-.191.477-.303.684-.08.16-.19.16-.128 0-.383-.128-4.716-2.39-11.392-3.6m-2.182 8.683q.255-.654.366-.893.064-.127.191-.127.08 0 .223.032 4.971 1.179 9.496 3.266.287.143.287.287 0 .08-.048.207l-.271.526q-.08.175-.223.175-.096 0-.27-.08-4.605-2.262-9.751-3.393m-.717 10.403q.143-.318.43-.812.112-.223.319-.223.063 0 .159.032 9.67 2.134 15.103 5.082.192.095.192.27 0 .112-.048.224-.096.239-.271.494-.112.175-.255.175-.096 0-.223-.08-3.362-1.784-8.046-3.282-3.728-1.179-7.36-1.88M236.27 967.113q5.401 1.45 11.057 4.7.191.095.191.207 0 .063-.032.111-.175.414-.35.685-.128.175-.24.175-.079 0-.254-.111-4.413-2.9-10.372-4.557v9.098q0 2.867.096 5.847 0 .382-.319.382h-.733q-.318 0-.318-.414.095-2.932.095-5.784v-16.76q0-2.135-.191-3.6.956.063 1.498.238.255.064.255.319 0 .16-.128.366-.255.43-.255 2.534zM280.924 959.45q1.8.159 5.321.159h4.54q3.33 0 5.115-.128.064-.016.111-.016.192 0 .192.303v.701q0 .287-.303.287-.637-.016-1.689-.032-2.119-.064-3.425-.064h-4.54q-2.646 0-4.924.096-.318 0-.366-.287-.032-.303-.032-1.02m-2.868 6.754q1.992.16 5.05.16h12.698q1.227 0 1.482-.175.08-.064.191-.064.175 0 .319.127.318.271.557.59.096.143.096.287 0 .175-.16.286-.318.223-.557.845-4.19 10.228-14.69 15.247-.174.08-.302.08-.127 0-.207-.08-.303-.303-.956-.558 11.248-5.305 15.104-15.502h-13.543q-2.788 0-4.524.096-.096.016-.16.016-.239 0-.302-.271-.096-.494-.096-1.084M330.246 967.368l.685-.415q.08-.048.143-.048.112 0 .255.176 1.275 1.593 2.533 4.445.048.095.048.143 0 .096-.143.175-.43.255-.59.335-.064.016-.111.016-.096 0-.176-.191-1.21-2.948-2.644-4.637m6.325-1.498.685-.398q.063-.016.127-.016.143 0 .24.159 1.242 1.705 2.341 4.43.032.063.032.095 0 .127-.16.207l-.557.287q-.08.031-.127.031-.096 0-.16-.159-.972-2.645-2.421-4.636m10.212.255q.94.223 1.37.557.128.096.128.271 0 .16-.128.255-.382.319-.844 1.402-2.12 5.13-4.796 8.524-3.075 3.855-6.978 6.197-.112.048-.207.048-.112 0-.16-.048-.366-.366-.908-.43 4.175-2.374 7.409-6.389 2.979-3.696 4.636-8.3.35-.956.478-2.087M388.346 962.572l8.73-.191q1.1-.048 1.402-.191.112-.064.224-.064.143 0 .302.127.271.176.622.59.19.207.19.398 0 .112-.095.207-.318.287-.621.988-3.06 6.691-6.293 10.451-4.684 5.417-10.627 8.843-.08.032-.16.032-.11 0-.174-.064-.399-.35-1.116-.606 6.596-3.584 11.105-8.97 3.712-4.412 6.325-10.69l-10.579.255q-3.489 4.445-6.978 7.504-.16.128-.287.128-.048 0-.096-.032-.557-.319-1.115-.462 5.56-4.477 8.588-9.496 1.338-2.23 1.688-3.903.781.319 1.37.844.176.176.176.335t-.176.287q-.398.287-.94 1.21-1.258 2.151-1.465 2.47" style="font-style:normal;font-variant:normal;font-weight:300;font-stretch:normal;font-size:32.62860107px;line-height:120.00000477%;font-family:&quot;Yu Gothic&quot;;-inkscape-font-specification:&quot;Yu Gothic Light&quot;;text-align:start;letter-spacing:18.12699699px;text-anchor:start" transform="translate(0 -952.362)"/><path d="m159.04 1005.706-2.677.987q-1.625-5.64-5.513-8.444-3.345-2.453-8.061-2.453-7.648 0-12.172 6.628-4.143 6.054-4.143 15.74 0 11.185 5.194 17.334 4.366 5.194 11.12 5.194 7.871 0 11.504-6.436Q157 1029.412 157 1021.7h-14.626v-2.358h17.111v22.91h-2.103l-.318-9.017q-2.071 5.13-6.182 7.68-3.537 2.198-8.093 2.198-8.922 0-14.307-7.424-4.875-6.724-4.875-17.462 0-12.172 6.404-19.15 5.226-5.704 12.778-5.704 6.277 0 10.674 3.76 3.76 3.187 5.576 8.572M187.908 993.374q8.858 0 14.147 7.329 4.844 6.723 4.844 17.398 0 12.3-6.214 19.246-5.162 5.767-12.777 5.767-8.89 0-14.211-7.424-4.844-6.724-4.844-17.462 0-12.236 6.246-19.15 5.162-5.704 12.809-5.704m0 2.422q-7.743 0-12.172 6.628-4.015 6.022-4.015 15.74 0 11.185 5.162 17.366 4.333 5.162 11.025 5.162 7.711 0 12.14-6.723 3.983-6.022 3.983-15.805 0-11.152-5.13-17.238-4.302-5.13-10.993-5.13M262.374 994.235v48.018h-2.677v-32.628l.128-13.096h-.446q-2.486 6.946-4.844 12.905l-12.905 32.82h-3.473l-12.905-32.82q-2.58-6.596-4.843-12.905h-.446l.127 13.096v32.629h-2.612v-48.02h4.556l12.746 32.374q2.358 5.895 4.939 13.351h.478q2.58-7.679 4.747-13.16l12.81-32.564zM278.656 994.235v48.018h-2.676v-48.018zM322.119 994.235v2.358h-15.964v45.66h-2.677v-45.66H287.61v-2.358zM331.04 994.235h14.945q8.54 0 12.586 3.632 3.345 2.995 3.345 8.317 0 4.907-3.122 8.125-2.804 2.9-7.775 3.887l12.013 24.057h-3.091l-11.599-23.674q-1.72.127-2.74.127h-11.885v23.548h-2.677zm2.677 2.358v19.819h11.694q13.701 0 13.701-10.165 0-5.225-3.505-7.551-3.218-2.103-9.814-2.103zM387.408 994.235l16.378 48.018h-2.932l-5.576-16.632h-19.373l-5.608 16.632h-2.868l16.442-48.018zm7.105 29.091-4.556-13.701q-1.88-5.48-4.11-13.096h-.479q-1.657 5.895-4.11 13.032l-4.62 13.765zM443.902 1006.12l-2.676.956q-3.123-11.28-13.702-11.28-7.647 0-12.172 6.628-4.142 6.054-4.142 15.74 0 11.12 5.321 17.366 4.397 5.162 10.993 5.162 11.057 0 14.084-11.63l2.677 1.243q-4.27 12.809-16.76 12.809-8.795 0-14.212-7.424-4.97-6.787-4.97-17.462 0-12.172 6.404-19.15 5.225-5.704 12.777-5.704 6.341 0 10.738 3.792 3.792 3.282 5.64 8.954M485.899 994.235l-18.8 19.437 21.062 28.581h-3.377l-19.374-26.829-9.208 9.527v17.303h-2.677v-48.02h2.677v27.659l26.096-27.658z" style="font-style:normal;font-variant:normal;font-weight:300;font-stretch:normal;font-size:65.25720215px;line-height:120.00000477%;font-family:&quot;Yu Gothic&quot;;-inkscape-font-specification:&quot;Yu Gothic Light&quot;;text-align:start;letter-spacing:0;text-anchor:start" transform="translate(0 -952.362)"/></g><path d="M20.271 72.917c-1.045 1.877-1.877 4.7-1.877 6.48 0 .413 0 .938.103 1.667L5.437 58.603c-.419-.729-.73-1.774-.73-2.716 0-.944.311-2.09.73-2.82l6.27-10.97-7-3.968 22.777-.421L38.556 57.66l-7.101-4.074zM30.303 9.608c1.984-3.451 5.225-5.331 9.192-5.331 4.286 0 7.63 1.987 10.032 6.056l3.553 5.955-12.331 21.318-19.953-11.598zm1.459 81.382c-5.955 0-10.864-4.91-10.864-10.864 0-1.672.734-4.496 1.779-6.27l3.34-5.955H50.78V90.99zM51.617 8.977c-1.566-2.713-3.656-4.598-6.164-5.644h25.699c2.299 0 4.073.944 5.122 2.721l6.373 10.865 6.893-4.078-11.077 19.854-22.666-.319 6.999-3.967zm39.6 59.134c3.13 0 5.745-.836 7.937-2.505L86.196 88.17c-1.045 1.774-2.921 2.82-5.114 2.82h-12.23v8.044L57.154 79.499l11.7-19.54v8.152zm10.023-18.806c.943 1.672 1.467 3.446 1.467 5.328 0 3.761-2.406 7.732-5.745 9.609-1.57.84-3.767 1.365-5.955 1.365h-6.9L71.782 44.289 91.737 32.9z"/></svg>